YU-SITELEN-LEKO-PONA.ufo
<glyph name="quotesingle" format="2">
  <advance width="460"/>
  <unicode hex="0027"/>
  <outline>
    <contour>
      <point x="158" y="538" type="line"/>
      <point x="223" y="538" type="line"/>
      <point x="223" y="473" type="line"/>
      <point x="158" y="473" type="line"/>
    </contour>
    <contour>
      <point x="158" y="459" type="line"/>
      <point x="223" y="459" type="line"/>
      <point x="223" y="394" type="line"/>
      <point x="158" y="394" type="line"/>
    </contour>
    <contour>
      <point x="158" y="380" type="line"/>
      <point x="223" y="380" type="line"/>
      <point x="223" y="315" type="line"/>
      <point x="158" y="315" type="line"/>
    </contour>
    <contour>
      <point x="79" y="538" type="line"/>
      <point x="144" y="538" type="line"/>
      <point x="144" y="473" type="line"/>
      <point x="79" y="473" type="line"/>
    </contour>
    <contour>
      <point x="79" y="459" type="line"/>
      <point x="144" y="459" type="line"/>
      <point x="144" y="394" type="line"/>
      <point x="79" y="394" type="line"/>
    </contour>
    <contour>
      <point x="79" y="301" type="line"/>
      <point x="144" y="301" type="line"/>
      <point x="144" y="236" type="line"/>
      <point x="79" y="236" type="line"/>
    </contour>
  </outline>
</glyph>
<glyph name="parenleft" format="2">
  <advance width="460"/>
  <unicode hex="0028"/>
  <outline>
    <contour>
      <point x="316" y="538" type="line"/>
      <point x="381" y="538" type="line"/>
      <point x="381" y="473" type="line"/>
      <point x="316" y="473" type="line"/>
    </contour>
    <contour>
      <point x="316" y="65" type="line"/>
      <point x="381" y="65" type="line"/>
      <point x="381" y="0" type="line"/>
      <point x="316" y="0" type="line"/>
    </contour>
    <contour>
      <point x="238" y="459" type="line"/>
      <point x="303" y="459" type="line"/>
      <point x="303" y="394" type="line"/>
      <point x="238" y="394" type="line"/>
    </contour>
    <contour>
      <point x="159" y="380" type="line"/>
      <point x="224" y="380" type="line"/>
      <point x="224" y="315" type="line"/>
      <point x="159" y="315" type="line"/>
    </contour>
    <contour>
      <point x="159" y="301" type="line"/>
      <point x="224" y="301" type="line"/>
      <point x="224" y="236" type="line"/>
      <point x="159" y="236" type="line"/>
    </contour>
    <contour>
      <point x="159" y="223" type="line"/>
      <point x="224" y="223" type="line"/>
      <point x="224" y="158" type="line"/>
      <point x="159" y="158" type="line"/>
    </contour>
    <contour>
      <point x="238" y="144" type="line"/>
      <point x="303" y="144" type="line"/>
      <point x="303" y="79" type="line"/>
      <point x="238" y="79" type="line"/>
    </contour>
  </outline>
</glyph>
<glyph name="slash" format="2">
  <advance width="460"/>
  <unicode hex="002F"/>
  <outline>
    <contour>
      <point x="315" y="459" type="line"/>
      <point x="380" y="459" type="line"/>
      <point x="380" y="394" type="line"/>
      <point x="315" y="394" type="line"/>
    </contour>
    <contour>
      <point x="236" y="380" type="line"/>
      <point x="301" y="380" type="line"/>
      <point x="301" y="315" type="line"/>
      <point x="236" y="315" type="line"/>
    </contour>
    <contour>
      <point x="158" y="301" type="line"/>
      <point x="223" y="301" type="line"/>
      <point x="223" y="236" type="line"/>
      <point x="158" y="236" type="line"/>
    </contour>
    <contour>
      <point x="79" y="223" type="line"/>
      <point x="144" y="223" type="line"/>
      <point x="144" y="158" type="line"/>
      <point x="79" y="158" type="line"/>
    </contour>
    <contour>
      <point x="0" y="144" type="line"/>
      <point x="65" y="144" type="line"/>
      <point x="65" y="79" type="line"/>
      <point x="0" y="79" type="line"/>
    </contour>
  </outline>
</glyph>
<glyph name="Z" format="2">
  <advance width="460"/>
  <unicode hex="005A"/>
  <outline>
    <contour>
      <point x="315" y="538" type="line"/>
      <point x="380" y="538" type="line"/>
      <point x="380" y="473" type="line"/>
      <point x="315" y="473" type="line"/>
    </contour>
    <contour>
      <point x="315" y="459" type="line"/>
      <point x="380" y="459" type="line"/>
      <point x="380" y="394" type="line"/>
      <point x="315" y="394" type="line"/>
    </contour>
    <contour>
      <point x="315" y="65" type="line"/>
      <point x="380" y="65" type="line"/>
      <point x="380" y="0" type="line"/>
      <point x="315" y="0" type="line"/>
    </contour>
    <contour>
      <point x="236" y="538" type="line"/>
      <point x="301" y="538" type="line"/>
      <point x="301" y="473" type="line"/>
      <point x="236" y="473" type="line"/>
    </contour>
    <contour>
      <point x="158" y="538" type="line"/>
      <point x="223" y="538" type="line"/>
      <point x="223" y="473" type="line"/>
      <point x="158" y="473" type="line"/>
    </contour>
    <contour>
      <point x="236" y="380" type="line"/>
      <point x="301" y="380" type="line"/>
      <point x="301" y="315" type="line"/>
      <point x="236" y="315" type="line"/>
    </contour>
    <contour>
      <point x="158" y="301" type="line"/>
      <point x="223" y="301" type="line"/>
      <point x="223" y="236" type="line"/>
      <point x="158" y="236" type="line"/>
    </contour>
    <contour>
      <point x="236" y="65" type="line"/>
      <point x="301" y="65" type="line"/>
      <point x="301" y="0" type="line"/>
      <point x="236" y="0" type="line"/>
    </contour>
    <contour>
      <point x="158" y="65" type="line"/>
      <point x="223" y="65" type="line"/>
      <point x="223" y="0" type="line"/>
      <point x="158" y="0" type="line"/>
    </contour>
    <contour>
      <point x="79" y="538" type="line"/>
      <point x="144" y="538" type="line"/>
      <point x="144" y="473" type="line"/>
      <point x="79" y="473" type="line"/>
    </contour>
    <contour>
      <point x="0" y="538" type="line"/>
      <point x="65" y="538" type="line"/>
      <point x="65" y="473" type="line"/>
      <point x="0" y="473" type="line"/>
    </contour>
    <contour>
      <point x="79" y="223" type="line"/>
      <point x="144" y="223" type="line"/>
      <point x="144" y="158" type="line"/>
      <point x="79" y="158" type="line"/>
    </contour>
    <contour>
      <point x="0" y="144" type="line"/>
      <point x="65" y="144" type="line"/>
      <point x="65" y="79" type="line"/>
      <point x="0" y="79" type="line"/>
    </contour>
    <contour>
      <point x="79" y="65" type="line"/>
      <point x="144" y="65" type="line"/>
      <point x="144" y="0" type="line"/>
      <point x="79" y="0" type="line"/>
    </contour>
    <contour>
      <point x="0" y="65" type="line"/>
      <point x="65" y="65" type="line"/>
      <point x="65" y="0" type="line"/>
      <point x="0" y="0" type="line"/>
    </contour>
  </outline>
</glyph>
<glyph name="bracketright" format="2">
  <advance width="460"/>
  <unicode hex="005D"/>
  <outline>
    <contour>
      <point x="78" y="538" type="line"/>
      <point x="143" y="538" type="line"/>
      <point x="143" y="473" type="line"/>
      <point x="78" y="473" type="line"/>
    </contour>
    <contour>
      <point x="78" y="459" type="line"/>
      <point x="143" y="459" type="line"/>
      <point x="143" y="394" type="line"/>
      <point x="78" y="394" type="line"/>
    </contour>
    <contour>
      <point x="78" y="380" type="line"/>
      <point x="143" y="380" type="line"/>
      <point x="143" y="315" type="line"/>
      <point x="78" y="315" type="line"/>
    </contour>
    <contour>
      <point x="78" y="301" type="line"/>
      <point x="143" y="301" type="line"/>
      <point x="143" y="236" type="line"/>
      <point x="78" y="236" type="line"/>
    </contour>
    <contour>
      <point x="78" y="223" type="line"/>
      <point x="143" y="223" type="line"/>
      <point x="143" y="158" type="line"/>
      <point x="78" y="158" type="line"/>
    </contour>
    <contour>
      <point x="78" y="144" type="line"/>
      <point x="143" y="144" type="line"/>
      <point x="143" y="79" type="line"/>
      <point x="78" y="79" type="line"/>
    </contour>
    <contour>
      <point x="78" y="65" type="line"/>
      <point x="143" y="65" type="line"/>
      <point x="143" y="0" type="line"/>
      <point x="78" y="0" type="line"/>
    </contour>
    <contour>
      <point x="-1" y="538" type="line"/>
      <point x="64" y="538" type="line"/>
      <point x="64" y="473" type="line"/>
      <point x="-1" y="473" type="line"/>
    </contour>
    <contour>
      <point x="-1" y="65" type="line"/>
      <point x="64" y="65" type="line"/>
      <point x="64" y="0" type="line"/>
      <point x="-1" y="0" type="line"/>
    </contour>
  </outline>
</glyph>
<glyph name="a" format="2">
  <advance width="458"/>
  <unicode hex="0061"/>
  <outline>
    <contour>
      <point x="276" y="158" type="move"/>
    </contour>
    <contour>
      <point x="197" y="144" type="line"/>
      <point x="262" y="144" type="line"/>
      <point x="262" y="79" type="line"/>
      <point x="197" y="79" type="line"/>
    </contour>
    <contour>
      <point x="276" y="65" type="line"/>
      <point x="341" y="65" type="line"/>
      <point x="341" y="0" type="line"/>
      <point x="276" y="0" type="line"/>
    </contour>
    <contour>
      <point x="197" y="65" type="line"/>
      <point x="262" y="65" type="line"/>
      <point x="262" y="0" type="line"/>
      <point x="197" y="0" type="line"/>
    </contour>
    <contour>
      <point x="118" y="538" type="line"/>
      <point x="183" y="538" type="line"/>
      <point x="183" y="473" type="line"/>
      <point x="118" y="473" type="line"/>
    </contour>
    <contour>
      <point x="118" y="459" type="line"/>
      <point x="183" y="459" type="line"/>
      <point x="183" y="394" type="line"/>
      <point x="118" y="394" type="line"/>
    </contour>
    <contour>
      <point x="118" y="380" type="line"/>
      <point x="183" y="380" type="line"/>
      <point x="183" y="315" type="line"/>
      <point x="118" y="315" type="line"/>
    </contour>
    <contour>
      <point x="118" y="301" type="line"/>
      <point x="183" y="301" type="line"/>
      <point x="183" y="236" type="line"/>
      <point x="118" y="236" type="line"/>
    </contour>
    <contour>
      <point x="118" y="144" type="line"/>
      <point x="183" y="144" type="line"/>
      <point x="183" y="79" type="line"/>
      <point x="118" y="79" type="line"/>
    </contour>
    <contour>
      <point x="118" y="65" type="line"/>
      <point x="183" y="65" type="line"/>
      <point x="183" y="0" type="line"/>
      <point x="118" y="0" type="line"/>
    </contour>
  </outline>
</glyph>
<glyph name="o" format="2">
  <advance width="460"/>
  <unicode hex="006F"/>
  <outline>
    <contour>
      <point x="158" y="144" type="line"/>
      <point x="223" y="144" type="line"/>
      <point x="223" y="79" type="line"/>
      <point x="158" y="79" type="line"/>
    </contour>
    <contour>
      <point x="158" y="65" type="line"/>
      <point x="223" y="65" type="line"/>
      <point x="223" y="0" type="line"/>
      <point x="158" y="0" type="line"/>
    </contour>
    <contour>
      <point x="79" y="538" type="line"/>
      <point x="144" y="538" type="line"/>
      <point x="144" y="473" type="line"/>
      <point x="79" y="473" type="line"/>
    </contour>
    <contour>
      <point x="79" y="459" type="line"/>
      <point x="144" y="459" type="line"/>
      <point x="144" y="394" type="line"/>
      <point x="79" y="394" type="line"/>
    </contour>
    <contour>
      <point x="79" y="380" type="line"/>
      <point x="144" y="380" type="line"/>
      <point x="144" y="315" type="line"/>
      <point x="79" y="315" type="line"/>
    </contour>
    <contour>
      <point x="79" y="301" type="line"/>
      <point x="144" y="301" type="line"/>
      <point x="144" y="236" type="line"/>
      <point x="79" y="236" type="line"/>
    </contour>
    <contour>
      <point x="79" y="144" type="line"/>
      <point x="144" y="144" type="line"/>
      <point x="144" y="79" type="line"/>
      <point x="79" y="79" type="line"/>
    </contour>
    <contour>
      <point x="79" y="65" type="line"/>
      <point x="144" y="65" type="line"/>
      <point x="144" y="0" type="line"/>
      <point x="79" y="0" type="line"/>
    </contour>
  </outline>
</glyph>
<glyph name="Adieresis" format="2">
  <advance width="460"/>
  <unicode hex="00C4"/>
  <outline>
    <contour>
      <point x="315" y="301" type="line"/>
      <point x="380" y="301" type="line"/>
      <point x="380" y="236" type="line"/>
      <point x="315" y="236" type="line"/>
    </contour>
    <contour>
      <point x="0" y="301" type="line"/>
      <point x="65" y="301" type="line"/>
      <point x="65" y="236" type="line"/>
      <point x="0" y="236" type="line"/>
    </contour>
    <contour>
      <point x="315" y="381" type="line"/>
      <point x="380" y="381" type="line"/>
      <point x="380" y="316" type="line"/>
      <point x="315" y="316" type="line"/>
    </contour>
    <contour>
      <point x="79" y="395" type="move"/>
    </contour>
    <contour>
      <point x="0" y="381" type="line"/>
      <point x="65" y="381" type="line"/>
      <point x="65" y="316" type="line"/>
      <point x="0" y="316" type="line"/>
    </contour>
    <contour>
      <point x="315" y="223" type="line"/>
      <point x="380" y="223" type="line"/>
      <point x="380" y="158" type="line"/>
      <point x="315" y="158" type="line"/>
    </contour>
    <contour>
      <point x="315" y="144" type="line"/>
      <point x="380" y="144" type="line"/>
      <point x="380" y="79" type="line"/>
      <point x="315" y="79" type="line"/>
    </contour>
    <contour>
      <point x="315" y="65" type="line"/>
      <point x="380" y="65" type="line"/>
      <point x="380" y="0" type="line"/>
      <point x="315" y="0" type="line"/>
    </contour>
    <contour>
      <point x="316" y="538" type="line"/>
      <point x="381" y="538" type="line"/>
      <point x="381" y="473" type="line"/>
      <point x="316" y="473" type="line"/>
    </contour>
    <contour>
      <point x="236" y="460" type="line"/>
      <point x="301" y="460" type="line"/>
      <point x="301" y="395" type="line"/>
      <point x="236" y="395" type="line"/>
    </contour>
    <contour>
      <point x="158" y="540" type="line"/>
      <point x="223" y="540" type="line"/>
      <point x="223" y="475" type="line"/>
      <point x="158" y="475" type="line"/>
    </contour>
    <contour>
      <point x="236" y="223" type="line"/>
      <point x="301" y="223" type="line"/>
      <point x="301" y="158" type="line"/>
      <point x="236" y="158" type="line"/>
    </contour>
    <contour>
      <point x="158" y="223" type="line"/>
      <point x="223" y="223" type="line"/>
      <point x="223" y="158" type="line"/>
      <point x="158" y="158" type="line"/>
    </contour>
    <contour>
      <point x="-1" y="538" type="line"/>
      <point x="64" y="538" type="line"/>
      <point x="64" y="473" type="line"/>
      <point x="-1" y="473" type="line"/>
    </contour>
    <contour>
      <point x="79" y="460" type="line"/>
      <point x="144" y="460" type="line"/>
      <point x="144" y="395" type="line"/>
      <point x="79" y="395" type="line"/>
    </contour>
    <contour>
      <point x="79" y="223" type="line"/>
      <point x="144" y="223" type="line"/>
      <point x="144" y="158" type="line"/>
      <point x="79" y="158" type="line"/>
    </contour>
    <contour>
      <point x="0" y="223" type="line"/>
      <point x="65" y="223" type="line"/>
      <point x="65" y="158" type="line"/>
      <point x="0" y="158" type="line"/>
    </contour>
    <contour>
      <point x="0" y="144" type="line"/>
      <point x="65" y="144" type="line"/>
      <point x="65" y="79" type="line"/>
      <point x="0" y="79" type="line"/>
    </contour>
    <contour>
      <point x="0" y="65" type="line"/>
      <point x="65" y="65" type="line"/>
      <point x="65" y="0" type="line"/>
      <point x="0" y="0" type="line"/>
    </contour>
  </outline>
</glyph>
<glyph name="Odieresis" format="2">
  <advance width="460"/>
  <unicode hex="00D6"/>
  <outline>
    <contour>
      <point x="315" y="383" type="line"/>
      <point x="380" y="383" type="line"/>
      <point x="380" y="318" type="line"/>
      <point x="315" y="318" type="line"/>
    </contour>
    <contour>
      <point x="0" y="383" type="line"/>
      <point x="65" y="383" type="line"/>
      <point x="65" y="318" type="line"/>
      <point x="0" y="318" type="line"/>
    </contour>
    <contour>
      <point x="236" y="460" type="line"/>
      <point x="301" y="460" type="line"/>
      <point x="301" y="395" type="line"/>
      <point x="236" y="395" type="line"/>
    </contour>
    <contour>
      <point x="158" y="460" type="line"/>
      <point x="223" y="460" type="line"/>
      <point x="223" y="395" type="line"/>
      <point x="158" y="395" type="line"/>
    </contour>
    <contour>
      <point x="79" y="460" type="line"/>
      <point x="144" y="460" type="line"/>
      <point x="144" y="395" type="line"/>
      <point x="79" y="395" type="line"/>
    </contour>
    <contour>
      <point x="315" y="303" type="line"/>
      <point x="380" y="303" type="line"/>
      <point x="380" y="238" type="line"/>
      <point x="315" y="238" type="line"/>
    </contour>
    <contour>
      <point x="0" y="303" type="line"/>
      <point x="65" y="303" type="line"/>
      <point x="65" y="238" type="line"/>
      <point x="0" y="238" type="line"/>
    </contour>
    <contour>
      <point x="315" y="223" type="line"/>
      <point x="380" y="223" type="line"/>
      <point x="380" y="158" type="line"/>
      <point x="315" y="158" type="line"/>
    </contour>
    <contour>
      <point x="315" y="144" type="line"/>
      <point x="380" y="144" type="line"/>
      <point x="380" y="79" type="line"/>
      <point x="315" y="79" type="line"/>
    </contour>
    <contour>
      <point x="316" y="538" type="line"/>
      <point x="381" y="538" type="line"/>
      <point x="381" y="473" type="line"/>
      <point x="316" y="473" type="line"/>
    </contour>
    <contour>
      <point x="236" y="65" type="line"/>
      <point x="301" y="65" type="line"/>
      <point x="301" y="0" type="line"/>
      <point x="236" y="0" type="line"/>
    </contour>
    <contour>
      <point x="158" y="65" type="line"/>
      <point x="223" y="65" type="line"/>
      <point x="223" y="0" type="line"/>
      <point x="158" y="0" type="line"/>
    </contour>
    <contour>
      <point x="-1" y="538" type="line"/>
      <point x="64" y="538" type="line"/>
      <point x="64" y="473" type="line"/>
      <point x="-1" y="473" type="line"/>
    </contour>
    <contour>
      <point x="0" y="223" type="line"/>
      <point x="65" y="223" type="line"/>
      <point x="65" y="158" type="line"/>
      <point x="0" y="158" type="line"/>
    </contour>
    <contour>
      <point x="0" y="144" type="line"/>
      <point x="65" y="144" type="line"/>
      <point x="65" y="79" type="line"/>
      <point x="0" y="79" type="line"/>
    </contour>
    <contour>
      <point x="79" y="65" type="line"/>
      <point x="144" y="65" type="line"/>
      <point x="144" y="0" type="line"/>
      <point x="79" y="0" type="line"/>
    </contour>
  </outline>
</glyph>
<glyph name="Oslash" format="2">
  <advance width="460"/>
  <unicode hex="00D8"/>
  <outline>
    <contour>
      <point x="315" y="459" type="line"/>
      <point x="380" y="459" type="line"/>
      <point x="380" y="394" type="line"/>
      <point x="315" y="394" type="line"/>
    </contour>
    <contour>
      <point x="315" y="380" type="line"/>
      <point x="380" y="380" type="line"/>
      <point x="380" y="315" type="line"/>
      <point x="315" y="315" type="line"/>
    </contour>
    <contour>
      <point x="315" y="301" type="line"/>
      <point x="380" y="301" type="line"/>
      <point x="380" y="236" type="line"/>
      <point x="315" y="236" type="line"/>
    </contour>
    <contour>
      <point x="315" y="223" type="line"/>
      <point x="380" y="223" type="line"/>
      <point x="380" y="158" type="line"/>
      <point x="315" y="158" type="line"/>
    </contour>
    <contour>
      <point x="315" y="144" type="line"/>
      <point x="380" y="144" type="line"/>
      <point x="380" y="79" type="line"/>
      <point x="315" y="79" type="line"/>
    </contour>
    <contour>
      <point x="236" y="538" type="line"/>
      <point x="301" y="538" type="line"/>
      <point x="301" y="473" type="line"/>
      <point x="236" y="473" type="line"/>
    </contour>
    <contour>
      <point x="158" y="538" type="line"/>
      <point x="223" y="538" type="line"/>
      <point x="223" y="473" type="line"/>
      <point x="158" y="473" type="line"/>
    </contour>
    <contour>
      <point x="236" y="459" type="line"/>
      <point x="301" y="459" type="line"/>
      <point x="301" y="394" type="line"/>
      <point x="236" y="394" type="line"/>
    </contour>
    <contour>
      <point x="158" y="380" type="line"/>
      <point x="223" y="380" type="line"/>
      <point x="223" y="315" type="line"/>
      <point x="158" y="315" type="line"/>
    </contour>
    <contour>
      <point x="158" y="301" type="line"/>
      <point x="223" y="301" type="line"/>
      <point x="223" y="236" type="line"/>
      <point x="158" y="236" type="line"/>
    </contour>
    <contour>
      <point x="158" y="223" type="line"/>
      <point x="223" y="223" type="line"/>
      <point x="223" y="158" type="line"/>
      <point x="158" y="158" type="line"/>
    </contour>
    <contour>
      <point x="236" y="65" type="line"/>
      <point x="301" y="65" type="line"/>
      <point x="301" y="0" type="line"/>
      <point x="236" y="0" type="line"/>
    </contour>
    <contour>
      <point x="158" y="65" type="line"/>
      <point x="223" y="65" type="line"/>
      <point x="223" y="0" type="line"/>
      <point x="158" y="0" type="line"/>
    </contour>
    <contour>
      <point x="79" y="538" type="line"/>
      <point x="144" y="538" type="line"/>
      <point x="144" y="473" type="line"/>
      <point x="79" y="473" type="line"/>
    </contour>
    <contour>
      <point x="0" y="459" type="line"/>
      <point x="65" y="459" type="line"/>
      <point x="65" y="394" type="line"/>
      <point x="0" y="394" type="line"/>
    </contour>
    <contour>
      <point x="0" y="380" type="line"/>
      <point x="65" y="380" type="line"/>
      <point x="65" y="315" type="line"/>
      <point x="0" y="315" type="line"/>
    </contour>
    <contour>
      <point x="0" y="301" type="line"/>
      <point x="65" y="301" type="line"/>
      <point x="65" y="236" type="line"/>
      <point x="0" y="236" type="line"/>
    </contour>
    <contour>
      <point x="0" y="223" type="line"/>
      <point x="65" y="223" type="line"/>
      <point x="65" y="158" type="line"/>
      <point x="0" y="158" type="line"/>
    </contour>
    <contour>
      <point x="79" y="144" type="line"/>
      <point x="144" y="144" type="line"/>
      <point x="144" y="79" type="line"/>
      <point x="79" y="79" type="line"/>
    </contour>
    <contour>
      <point x="0" y="144" type="line"/>
      <point x="65" y="144" type="line"/>
      <point x="65" y="79" type="line"/>
      <point x="0" y="79" type="line"/>
    </contour>
    <contour>
      <point x="79" y="65" type="line"/>
      <point x="144" y="65" type="line"/>
      <point x="144" y="0" type="line"/>
      <point x="79" y="0" type="line"/>
    </contour>
  </outline>
</glyph>
<glyph name="ala" format="2">
  <advance width="458"/>
  <unicode hex="F1902"/>
  <outline>
    <contour>
      <point x="314" y="538" type="line"/>
      <point x="379" y="538" type="line"/>
      <point x="379" y="473" type="line"/>
      <point x="314" y="473" type="line"/>
    </contour>
    <contour>
      <point x="314" y="459" type="line"/>
      <point x="379" y="459" type="line"/>
      <point x="379" y="394" type="line"/>
      <point x="314" y="394" type="line"/>
    </contour>
    <contour>
      <point x="314" y="144" type="line"/>
      <point x="379" y="144" type="line"/>
      <point x="379" y="79" type="line"/>
      <point x="314" y="79" type="line"/>
    </contour>
    <contour>
      <point x="314" y="65" type="line"/>
      <point x="379" y="65" type="line"/>
      <point x="379" y="0" type="line"/>
      <point x="314" y="0" type="line"/>
    </contour>
    <contour>
      <point x="235" y="380" type="line"/>
      <point x="300" y="380" type="line"/>
      <point x="300" y="315" type="line"/>
      <point x="235" y="315" type="line"/>
    </contour>
    <contour>
      <point x="157" y="301" type="line"/>
      <point x="222" y="301" type="line"/>
      <point x="222" y="236" type="line"/>
      <point x="157" y="236" type="line"/>
    </contour>
    <contour>
      <point x="235" y="223" type="line"/>
      <point x="300" y="223" type="line"/>
      <point x="300" y="158" type="line"/>
      <point x="235" y="158" type="line"/>
    </contour>
    <contour>
      <point x="-1" y="538" type="line"/>
      <point x="64" y="538" type="line"/>
      <point x="64" y="473" type="line"/>
      <point x="-1" y="473" type="line"/>
    </contour>
    <contour>
      <point x="-1" y="459" type="line"/>
      <point x="64" y="459" type="line"/>
      <point x="64" y="394" type="line"/>
      <point x="-1" y="394" type="line"/>
    </contour>
    <contour>
      <point x="78" y="380" type="line"/>
      <point x="143" y="380" type="line"/>
      <point x="143" y="315" type="line"/>
      <point x="78" y="315" type="line"/>
    </contour>
    <contour>
      <point x="78" y="223" type="line"/>
      <point x="143" y="223" type="line"/>
      <point x="143" y="158" type="line"/>
      <point x="78" y="158" type="line"/>
    </contour>
    <contour>
      <point x="-1" y="144" type="line"/>
      <point x="64" y="144" type="line"/>
      <point x="64" y="79" type="line"/>
      <point x="-1" y="79" type="line"/>
    </contour>
    <contour>
      <point x="-1" y="65" type="line"/>
      <point x="64" y="65" type="line"/>
      <point x="64" y="0" type="line"/>
      <point x="-1" y="0" type="line"/>
    </contour>
  </outline>
</glyph>
<glyph name="esun" format="2">
  <advance width="458"/>
  <unicode hex="F190B"/>
  <outline>
    <contour>
      <point x="314" y="538" type="line"/>
      <point x="379" y="538" type="line"/>
      <point x="379" y="473" type="line"/>
      <point x="314" y="473" type="line"/>
    </contour>
    <contour>
      <point x="314" y="459" type="line"/>
      <point x="379" y="459" type="line"/>
      <point x="379" y="394" type="line"/>
      <point x="314" y="394" type="line"/>
    </contour>
    <contour>
      <point x="314" y="144" type="line"/>
      <point x="379" y="144" type="line"/>
      <point x="379" y="79" type="line"/>
      <point x="314" y="79" type="line"/>
    </contour>
    <contour>
      <point x="314" y="65" type="line"/>
      <point x="379" y="65" type="line"/>
      <point x="379" y="0" type="line"/>
      <point x="314" y="0" type="line"/>
    </contour>
    <contour>
      <point x="235" y="538" type="line"/>
      <point x="300" y="538" type="line"/>
      <point x="300" y="473" type="line"/>
      <point x="235" y="473" type="line"/>
    </contour>
    <contour>
      <point x="157" y="459" type="line"/>
      <point x="222" y="459" type="line"/>
      <point x="222" y="394" type="line"/>
      <point x="157" y="394" type="line"/>
    </contour>
    <contour>
      <point x="235" y="380" type="line"/>
      <point x="300" y="380" type="line"/>
      <point x="300" y="315" type="line"/>
      <point x="235" y="315" type="line"/>
    </contour>
    <contour>
      <point x="157" y="380" type="line"/>
      <point x="222" y="380" type="line"/>
      <point x="222" y="315" type="line"/>
      <point x="157" y="315" type="line"/>
    </contour>
    <contour>
      <point x="157" y="301" type="line"/>
      <point x="222" y="301" type="line"/>
      <point x="222" y="236" type="line"/>
      <point x="157" y="236" type="line"/>
    </contour>
    <contour>
      <point x="235" y="223" type="line"/>
      <point x="300" y="223" type="line"/>
      <point x="300" y="158" type="line"/>
      <point x="235" y="158" type="line"/>
    </contour>
    <contour>
      <point x="157" y="223" type="line"/>
      <point x="222" y="223" type="line"/>
      <point x="222" y="158" type="line"/>
      <point x="157" y="158" type="line"/>
    </contour>
    <contour>
      <point x="157" y="144" type="line"/>
      <point x="222" y="144" type="line"/>
      <point x="222" y="79" type="line"/>
      <point x="157" y="79" type="line"/>
    </contour>
    <contour>
      <point x="-1" y="538" type="line"/>
      <point x="64" y="538" type="line"/>
      <point x="64" y="473" type="line"/>
      <point x="-1" y="473" type="line"/>
    </contour>
    <contour>
      <point x="-1" y="459" type="line"/>
      <point x="64" y="459" type="line"/>
      <point x="64" y="394" type="line"/>
      <point x="-1" y="394" type="line"/>
    </contour>
    <contour>
      <point x="78" y="380" type="line"/>
      <point x="143" y="380" type="line"/>
      <point x="143" y="315" type="line"/>
      <point x="78" y="315" type="line"/>
    </contour>
    <contour>
      <point x="78" y="223" type="line"/>
      <point x="143" y="223" type="line"/>
      <point x="143" y="158" type="line"/>
      <point x="78" y="158" type="line"/>
    </contour>
    <contour>
      <point x="-1" y="144" type="line"/>
      <point x="64" y="144" type="line"/>
      <point x="64" y="79" type="line"/>
      <point x="-1" y="79" type="line"/>
    </contour>
    <contour>
      <point x="78" y="65" type="line"/>
      <point x="143" y="65" type="line"/>
      <point x="143" y="0" type="line"/>
      <point x="78" y="0" type="line"/>
    </contour>
    <contour>
      <point x="-1" y="65" type="line"/>
      <point x="64" y="65" type="line"/>
      <point x="64" y="0" type="line"/>
      <point x="-1" y="0" type="line"/>
    </contour>
  </outline>
</glyph>
<glyph name="lawa" format="2">
  <advance width="458"/>
  <unicode hex="F1924"/>
  <outline>
    <contour>
      <point x="314" y="380" type="line"/>
      <point x="379" y="380" type="line"/>
      <point x="379" y="315" type="line"/>
      <point x="314" y="315" type="line"/>
    </contour>
    <contour>
      <point x="157" y="538" type="line"/>
      <point x="222" y="538" type="line"/>
      <point x="222" y="473" type="line"/>
      <point x="157" y="473" type="line"/>
    </contour>
    <contour>
      <point x="235" y="459" type="line"/>
      <point x="300" y="459" type="line"/>
      <point x="300" y="394" type="line"/>
      <point x="235" y="394" type="line"/>
    </contour>
    <contour>
      <point x="235" y="380" type="line"/>
      <point x="300" y="380" type="line"/>
      <point x="300" y="315" type="line"/>
      <point x="235" y="315" type="line"/>
    </contour>
    <contour>
      <point x="157" y="380" type="line"/>
      <point x="222" y="380" type="line"/>
      <point x="222" y="315" type="line"/>
      <point x="157" y="315" type="line"/>
    </contour>
    <contour>
      <point x="235" y="301" type="line"/>
      <point x="300" y="301" type="line"/>
      <point x="300" y="236" type="line"/>
      <point x="235" y="236" type="line"/>
    </contour>
    <contour>
      <point x="235" y="223" type="line"/>
      <point x="300" y="223" type="line"/>
      <point x="300" y="158" type="line"/>
      <point x="235" y="158" type="line"/>
    </contour>
    <contour>
      <point x="235" y="144" type="line"/>
      <point x="300" y="144" type="line"/>
      <point x="300" y="79" type="line"/>
      <point x="235" y="79" type="line"/>
    </contour>
    <contour>
      <point x="157" y="65" type="line"/>
      <point x="222" y="65" type="line"/>
      <point x="222" y="0" type="line"/>
      <point x="157" y="0" type="line"/>
    </contour>
    <contour>
      <point x="78" y="538" type="line"/>
      <point x="143" y="538" type="line"/>
      <point x="143" y="473" type="line"/>
      <point x="78" y="473" type="line"/>
    </contour>
    <contour>
      <point x="-1" y="459" type="line"/>
      <point x="64" y="459" type="line"/>
      <point x="64" y="394" type="line"/>
      <point x="-1" y="394" type="line"/>
    </contour>
    <contour>
      <point x="78" y="380" type="line"/>
      <point x="143" y="380" type="line"/>
      <point x="143" y="315" type="line"/>
      <point x="78" y="315" type="line"/>
    </contour>
    <contour>
      <point x="-1" y="380" type="line"/>
      <point x="64" y="380" type="line"/>
      <point x="64" y="315" type="line"/>
      <point x="-1" y="315" type="line"/>
    </contour>
    <contour>
      <point x="-1" y="301" type="line"/>
      <point x="64" y="301" type="line"/>
      <point x="64" y="236" type="line"/>
      <point x="-1" y="236" type="line"/>
    </contour>
    <contour>
      <point x="-1" y="223" type="line"/>
      <point x="64" y="223" type="line"/>
      <point x="64" y="158" type="line"/>
      <point x="-1" y="158" type="line"/>
    </contour>
    <contour>
      <point x="-1" y="144" type="line"/>
      <point x="64" y="144" type="line"/>
      <point x="64" y="79" type="line"/>
      <point x="-1" y="79" type="line"/>
    </contour>
    <contour>
      <point x="78" y="65" type="line"/>
      <point x="143" y="65" type="line"/>
      <point x="143" y="0" type="line"/>
      <point x="78" y="0" type="line"/>
    </contour>
  </outline>
</glyph>
<glyph name="len" format="2">
  <advance width="458"/>
  <unicode hex="F1925"/>
  <outline>
    <contour>
      <point x="314" y="538" type="line"/>
      <point x="379" y="538" type="line"/>
      <point x="379" y="473" type="line"/>
      <point x="314" y="473" type="line"/>
    </contour>
    <contour>
      <point x="314" y="459" type="line"/>
      <point x="379" y="459" type="line"/>
      <point x="379" y="394" type="line"/>
      <point x="314" y="394" type="line"/>
    </contour>
    <contour>
      <point x="314" y="380" type="line"/>
      <point x="379" y="380" type="line"/>
      <point x="379" y="315" type="line"/>
      <point x="314" y="315" type="line"/>
    </contour>
    <contour>
      <point x="314" y="301" type="line"/>
      <point x="379" y="301" type="line"/>
      <point x="379" y="236" type="line"/>
      <point x="314" y="236" type="line"/>
    </contour>
    <contour>
      <point x="314" y="223" type="line"/>
      <point x="379" y="223" type="line"/>
      <point x="379" y="158" type="line"/>
      <point x="314" y="158" type="line"/>
    </contour>
    <contour>
      <point x="314" y="144" type="line"/>
      <point x="379" y="144" type="line"/>
      <point x="379" y="79" type="line"/>
      <point x="314" y="79" type="line"/>
    </contour>
    <contour>
      <point x="314" y="65" type="line"/>
      <point x="379" y="65" type="line"/>
      <point x="379" y="0" type="line"/>
      <point x="314" y="0" type="line"/>
    </contour>
    <contour>
      <point x="235" y="538" type="line"/>
      <point x="300" y="538" type="line"/>
      <point x="300" y="473" type="line"/>
      <point x="235" y="473" type="line"/>
    </contour>
    <contour>
      <point x="157" y="538" type="line"/>
      <point x="222" y="538" type="line"/>
      <point x="222" y="473" type="line"/>
      <point x="157" y="473" type="line"/>
    </contour>
    <contour>
      <point x="235" y="223" type="line"/>
      <point x="300" y="223" type="line"/>
      <point x="300" y="158" type="line"/>
      <point x="235" y="158" type="line"/>
    </contour>
    <contour>
      <point x="157" y="223" type="line"/>
      <point x="222" y="223" type="line"/>
      <point x="222" y="158" type="line"/>
      <point x="157" y="158" type="line"/>
    </contour>
    <contour>
      <point x="157" y="144" type="line"/>
      <point x="222" y="144" type="line"/>
      <point x="222" y="79" type="line"/>
      <point x="157" y="79" type="line"/>
    </contour>
    <contour>
      <point x="157" y="65" type="line"/>
      <point x="222" y="65" type="line"/>
      <point x="222" y="0" type="line"/>
      <point x="157" y="0" type="line"/>
    </contour>
    <contour>
      <point x="78" y="538" type="line"/>
      <point x="143" y="538" type="line"/>
      <point x="143" y="473" type="line"/>
      <point x="78" y="473" type="line"/>
    </contour>
    <contour>
      <point x="-1" y="538" type="line"/>
      <point x="64" y="538" type="line"/>
      <point x="64" y="473" type="line"/>
      <point x="-1" y="473" type="line"/>
    </contour>
    <contour>
      <point x="-1" y="459" type="line"/>
      <point x="64" y="459" type="line"/>
      <point x="64" y="394" type="line"/>
      <point x="-1" y="394" type="line"/>
    </contour>
    <contour>
      <point x="-1" y="380" type="line"/>
      <point x="64" y="380" type="line"/>
      <point x="64" y="315" type="line"/>
      <point x="-1" y="315" type="line"/>
    </contour>
    <contour>
      <point x="-1" y="301" type="line"/>
      <point x="64" y="301" type="line"/>
      <point x="64" y="236" type="line"/>
      <point x="-1" y="236" type="line"/>
    </contour>
    <contour>
      <point x="78" y="223" type="line"/>
      <point x="143" y="223" type="line"/>
      <point x="143" y="158" type="line"/>
      <point x="78" y="158" type="line"/>
    </contour>
    <contour>
      <point x="-1" y="223" type="line"/>
      <point x="64" y="223" type="line"/>
      <point x="64" y="158" type="line"/>
      <point x="-1" y="158" type="line"/>
    </contour>
    <contour>
      <point x="-1" y="144" type="line"/>
      <point x="64" y="144" type="line"/>
      <point x="64" y="79" type="line"/>
      <point x="-1" y="79" type="line"/>
    </contour>
    <contour>
      <point x="-1" y="65" type="line"/>
      <point x="64" y="65" type="line"/>
      <point x="64" y="0" type="line"/>
      <point x="-1" y="0" type="line"/>
    </contour>
  </outline>
</glyph>
<glyph name="lili" format="2">
  <advance width="458"/>
  <unicode hex="F1928"/>
  <outline>
    <contour>
      <point x="235" y="380" type="line"/>
      <point x="300" y="380" type="line"/>
      <point x="300" y="315" type="line"/>
      <point x="235" y="315" type="line"/>
    </contour>
    <contour>
      <point x="235" y="301" type="line"/>
      <point x="300" y="301" type="line"/>
      <point x="300" y="236" type="line"/>
      <point x="235" y="236" type="line"/>
    </contour>
    <contour>
      <point x="157" y="223" type="line"/>
      <point x="222" y="223" type="line"/>
      <point x="222" y="158" type="line"/>
      <point x="157" y="158" type="line"/>
    </contour>
    <contour>
      <point x="78" y="380" type="line"/>
      <point x="143" y="380" type="line"/>
      <point x="143" y="315" type="line"/>
      <point x="78" y="315" type="line"/>
    </contour>
    <contour>
      <point x="78" y="301" type="line"/>
      <point x="143" y="301" type="line"/>
      <point x="143" y="236" type="line"/>
      <point x="78" y="236" type="line"/>
    </contour>
  </outline>
</glyph>
<glyph name="nimi" format="2">
  <advance width="458"/>
  <unicode hex="F1942"/>
  <outline>
    <contour>
      <point x="314" y="380" type="line"/>
      <point x="379" y="380" type="line"/>
      <point x="379" y="315" type="line"/>
      <point x="314" y="315" type="line"/>
    </contour>
    <contour>
      <point x="314" y="301" type="line"/>
      <point x="379" y="301" type="line"/>
      <point x="379" y="236" type="line"/>
      <point x="314" y="236" type="line"/>
    </contour>
    <contour>
      <point x="314" y="223" type="line"/>
      <point x="379" y="223" type="line"/>
      <point x="379" y="158" type="line"/>
      <point x="314" y="158" type="line"/>
    </contour>
    <contour>
      <point x="235" y="380" type="line"/>
      <point x="300" y="380" type="line"/>
      <point x="300" y="315" type="line"/>
      <point x="235" y="315" type="line"/>
    </contour>
    <contour>
      <point x="157" y="380" type="line"/>
      <point x="222" y="380" type="line"/>
      <point x="222" y="315" type="line"/>
      <point x="157" y="315" type="line"/>
    </contour>
    <contour>
      <point x="235" y="223" type="line"/>
      <point x="300" y="223" type="line"/>
      <point x="300" y="158" type="line"/>
      <point x="235" y="158" type="line"/>
    </contour>
    <contour>
      <point x="157" y="223" type="line"/>
      <point x="222" y="223" type="line"/>
      <point x="222" y="158" type="line"/>
      <point x="157" y="158" type="line"/>
    </contour>
    <contour>
      <point x="78" y="380" type="line"/>
      <point x="143" y="380" type="line"/>
      <point x="143" y="315" type="line"/>
      <point x="78" y="315" type="line"/>
    </contour>
    <contour>
      <point x="-1" y="380" type="line"/>
      <point x="64" y="380" type="line"/>
      <point x="64" y="315" type="line"/>
      <point x="-1" y="315" type="line"/>
    </contour>
    <contour>
      <point x="-1" y="301" type="line"/>
      <point x="64" y="301" type="line"/>
      <point x="64" y="236" type="line"/>
      <point x="-1" y="236" type="line"/>
    </contour>
    <contour>
      <point x="78" y="223" type="line"/>
      <point x="143" y="223" type="line"/>
      <point x="143" y="158" type="line"/>
      <point x="78" y="158" type="line"/>
    </contour>
    <contour>
      <point x="-1" y="223" type="line"/>
      <point x="64" y="223" type="line"/>
      <point x="64" y="158" type="line"/>
      <point x="-1" y="158" type="line"/>
    </contour>
  </outline>
</glyph>
<glyph name="ona" format="2">
  <advance width="458"/>
  <unicode hex="F1946"/>
  <outline>
    <contour>
      <point x="314" y="301" type="line"/>
      <point x="379" y="301" type="line"/>
      <point x="379" y="236" type="line"/>
      <point x="314" y="236" type="line"/>
    </contour>
    <contour>
      <point x="314" y="223" type="line"/>
      <point x="379" y="223" type="line"/>
      <point x="379" y="158" type="line"/>
      <point x="314" y="158" type="line"/>
    </contour>
    <contour>
      <point x="314" y="144" type="line"/>
      <point x="379" y="144" type="line"/>
      <point x="379" y="79" type="line"/>
      <point x="314" y="79" type="line"/>
    </contour>
    <contour>
      <point x="235" y="380" type="line"/>
      <point x="300" y="380" type="line"/>
      <point x="300" y="315" type="line"/>
      <point x="235" y="315" type="line"/>
    </contour>
    <contour>
      <point x="157" y="380" type="line"/>
      <point x="222" y="380" type="line"/>
      <point x="222" y="315" type="line"/>
      <point x="157" y="315" type="line"/>
    </contour>
    <contour>
      <point x="235" y="65" type="line"/>
      <point x="300" y="65" type="line"/>
      <point x="300" y="0" type="line"/>
      <point x="235" y="0" type="line"/>
    </contour>
    <contour>
      <point x="157" y="65" type="line"/>
      <point x="222" y="65" type="line"/>
      <point x="222" y="0" type="line"/>
      <point x="157" y="0" type="line"/>
    </contour>
    <contour>
      <point x="78" y="301" type="line"/>
      <point x="143" y="301" type="line"/>
      <point x="143" y="236" type="line"/>
      <point x="78" y="236" type="line"/>
    </contour>
    <contour>
      <point x="78" y="223" type="line"/>
      <point x="143" y="223" type="line"/>
      <point x="143" y="158" type="line"/>
      <point x="78" y="158" type="line"/>
    </contour>
    <contour>
      <point x="78" y="144" type="line"/>
      <point x="143" y="144" type="line"/>
      <point x="143" y="79" type="line"/>
      <point x="78" y="79" type="line"/>
    </contour>
    <contour>
      <point x="78" y="65" type="line"/>
      <point x="143" y="65" type="line"/>
      <point x="143" y="0" type="line"/>
      <point x="78" y="0" type="line"/>
    </contour>
    <contour>
      <point x="-1" y="65" type="line"/>
      <point x="64" y="65" type="line"/>
      <point x="64" y="0" type="line"/>
      <point x="-1" y="0" type="line"/>
    </contour>
  </outline>
</glyph>
<glyph name="pona" format="2">
  <advance width="458"/>
  <unicode hex="F1954"/>
  <outline>
    <contour>
      <point x="314" y="380" type="line"/>
      <point x="379" y="380" type="line"/>
      <point x="379" y="315" type="line"/>
      <point x="314" y="315" type="line"/>
    </contour>
    <contour>
      <point x="314" y="301" type="line"/>
      <point x="379" y="301" type="line"/>
      <point x="379" y="236" type="line"/>
      <point x="314" y="236" type="line"/>
    </contour>
    <contour>
      <point x="235" y="223" type="line"/>
      <point x="300" y="223" type="line"/>
      <point x="300" y="158" type="line"/>
      <point x="235" y="158" type="line"/>
    </contour>
    <contour>
      <point x="157" y="223" type="line"/>
      <point x="222" y="223" type="line"/>
      <point x="222" y="158" type="line"/>
      <point x="157" y="158" type="line"/>
    </contour>
    <contour>
      <point x="-1" y="380" type="line"/>
      <point x="64" y="380" type="line"/>
      <point x="64" y="315" type="line"/>
      <point x="-1" y="315" type="line"/>
    </contour>
    <contour>
      <point x="-1" y="301" type="line"/>
      <point x="64" y="301" type="line"/>
      <point x="64" y="236" type="line"/>
      <point x="-1" y="236" type="line"/>
    </contour>
    <contour>
      <point x="78" y="223" type="line"/>
      <point x="143" y="223" type="line"/>
      <point x="143" y="158" type="line"/>
      <point x="78" y="158" type="line"/>
    </contour>
  </outline>
</glyph>
<glyph name="suno" format="2">
  <advance width="458"/>
  <unicode hex="F1964"/>
  <outline>
    <contour>
      <point x="157" y="223" type="line"/>
      <point x="222" y="223" type="line"/>
      <point x="222" y="158" type="line"/>
      <point x="157" y="158" type="line"/>
    </contour>
    <contour>
      <point x="157" y="144" type="line"/>
      <point x="222" y="144" type="line"/>
      <point x="222" y="79" type="line"/>
      <point x="157" y="79" type="line"/>
    </contour>
    <contour>
      <point x="314" y="301" type="line"/>
      <point x="379" y="301" type="line"/>
      <point x="379" y="236" type="line"/>
      <point x="314" y="236" type="line"/>
    </contour>
    <contour>
      <point x="157" y="459" type="line"/>
      <point x="222" y="459" type="line"/>
      <point x="222" y="394" type="line"/>
      <point x="157" y="394" type="line"/>
    </contour>
    <contour>
      <point x="157" y="380" type="line"/>
      <point x="222" y="380" type="line"/>
      <point x="222" y="315" type="line"/>
      <point x="157" y="315" type="line"/>
    </contour>
    <contour>
      <point x="235" y="380" type="line"/>
      <point x="300" y="380" type="line"/>
      <point x="300" y="315" type="line"/>
      <point x="235" y="315" type="line"/>
    </contour>
    <contour>
      <point x="235" y="301" type="line"/>
      <point x="300" y="301" type="line"/>
      <point x="300" y="236" type="line"/>
      <point x="235" y="236" type="line"/>
    </contour>
    <contour>
      <point x="235" y="223" type="line"/>
      <point x="300" y="223" type="line"/>
      <point x="300" y="158" type="line"/>
      <point x="235" y="158" type="line"/>
    </contour>
    <contour>
      <point x="78" y="380" type="line"/>
      <point x="143" y="380" type="line"/>
      <point x="143" y="315" type="line"/>
      <point x="78" y="315" type="line"/>
    </contour>
    <contour>
      <point x="78" y="301" type="line"/>
      <point x="143" y="301" type="line"/>
      <point x="143" y="236" type="line"/>
      <point x="78" y="236" type="line"/>
    </contour>
    <contour>
      <point x="-1" y="301" type="line"/>
      <point x="64" y="301" type="line"/>
      <point x="64" y="236" type="line"/>
      <point x="-1" y="236" type="line"/>
    </contour>
    <contour>
      <point x="78" y="223" type="line"/>
      <point x="143" y="223" type="line"/>
      <point x="143" y="158" type="line"/>
      <point x="78" y="158" type="line"/>
    </contour>
  </outline>
</glyph>
<glyph name="tu" format="2">
  <advance width="458"/>
  <unicode hex="F196E"/>
  <outline>
    <contour>
      <point x="235" y="538" type="line"/>
      <point x="300" y="538" type="line"/>
      <point x="300" y="473" type="line"/>
      <point x="235" y="473" type="line"/>
    </contour>
    <contour>
      <point x="235" y="459" type="line"/>
      <point x="300" y="459" type="line"/>
      <point x="300" y="394" type="line"/>
      <point x="235" y="394" type="line"/>
    </contour>
    <contour>
      <point x="235" y="380" type="line"/>
      <point x="300" y="380" type="line"/>
      <point x="300" y="315" type="line"/>
      <point x="235" y="315" type="line"/>
    </contour>
    <contour>
      <point x="235" y="301" type="line"/>
      <point x="300" y="301" type="line"/>
      <point x="300" y="236" type="line"/>
      <point x="235" y="236" type="line"/>
    </contour>
    <contour>
      <point x="235" y="223" type="line"/>
      <point x="300" y="223" type="line"/>
      <point x="300" y="158" type="line"/>
      <point x="235" y="158" type="line"/>
    </contour>
    <contour>
      <point x="235" y="144" type="line"/>
      <point x="300" y="144" type="line"/>
      <point x="300" y="79" type="line"/>
      <point x="235" y="79" type="line"/>
    </contour>
    <contour>
      <point x="235" y="65" type="line"/>
      <point x="300" y="65" type="line"/>
      <point x="300" y="0" type="line"/>
      <point x="235" y="0" type="line"/>
    </contour>
    <contour>
      <point x="78" y="538" type="line"/>
      <point x="143" y="538" type="line"/>
      <point x="143" y="473" type="line"/>
      <point x="78" y="473" type="line"/>
    </contour>
    <contour>
      <point x="78" y="459" type="line"/>
      <point x="143" y="459" type="line"/>
      <point x="143" y="394" type="line"/>
      <point x="78" y="394" type="line"/>
    </contour>
    <contour>
      <point x="78" y="380" type="line"/>
      <point x="143" y="380" type="line"/>
      <point x="143" y="315" type="line"/>
      <point x="78" y="315" type="line"/>
    </contour>
    <contour>
      <point x="78" y="301" type="line"/>
      <point x="143" y="301" type="line"/>
      <point x="143" y="236" type="line"/>
      <point x="78" y="236" type="line"/>
    </contour>
    <contour>
      <point x="78" y="223" type="line"/>
      <point x="143" y="223" type="line"/>
      <point x="143" y="158" type="line"/>
      <point x="78" y="158" type="line"/>
    </contour>
    <contour>
      <point x="78" y="144" type="line"/>
      <point x="143" y="144" type="line"/>
      <point x="143" y="79" type="line"/>
      <point x="78" y="79" type="line"/>
    </contour>
    <contour>
      <point x="78" y="65" type="line"/>
      <point x="143" y="65" type="line"/>
      <point x="143" y="0" type="line"/>
      <point x="78" y="0" type="line"/>
    </contour>
  </outline>
</glyph>
<glyph name="sp_namako" format="2">
  <advance width="460"/>
  <unicode hex="F1978"/>
  <outline>
    <contour>
      <point x="315" y="301" type="line"/>
      <point x="380" y="301" type="line"/>
      <point x="380" y="236" type="line"/>
      <point x="315" y="236" type="line"/>
    </contour>
    <contour>
      <point x="158" y="538" type="line"/>
      <point x="223" y="538" type="line"/>
      <point x="223" y="473" type="line"/>
      <point x="158" y="473" type="line"/>
    </contour>
    <contour>
      <point x="158" y="459" type="line"/>
      <point x="223" y="459" type="line"/>
      <point x="223" y="394" type="line"/>
      <point x="158" y="394" type="line"/>
    </contour>
    <contour>
      <point x="236" y="301" type="line"/>
      <point x="301" y="301" type="line"/>
      <point x="301" y="236" type="line"/>
      <point x="236" y="236" type="line"/>
    </contour>
    <contour>
      <point x="158" y="144" type="line"/>
      <point x="223" y="144" type="line"/>
      <point x="223" y="79" type="line"/>
      <point x="158" y="79" type="line"/>
    </contour>
    <contour>
      <point x="158" y="65" type="line"/>
      <point x="223" y="65" type="line"/>
      <point x="223" y="0" type="line"/>
      <point x="158" y="0" type="line"/>
    </contour>
    <contour>
      <point x="79" y="301" type="line"/>
      <point x="144" y="301" type="line"/>
      <point x="144" y="236" type="line"/>
      <point x="79" y="236" type="line"/>
    </contour>
    <contour>
      <point x="0" y="301" type="line"/>
      <point x="65" y="301" type="line"/>
      <point x="65" y="236" type="line"/>
      <point x="0" y="236" type="line"/>
    </contour>
  </outline>
</glyph>
<glyph name="sp_kipisi" format="2">
  <advance width="460"/>
  <unicode hex="F197B"/>
  <outline>
    <contour>
      <point x="315" y="459" type="line"/>
      <point x="380" y="459" type="line"/>
      <point x="380" y="394" type="line"/>
      <point x="315" y="394" type="line"/>
    </contour>
    <contour>
      <point x="236" y="380" type="line"/>
      <point x="301" y="380" type="line"/>
      <point x="301" y="315" type="line"/>
      <point x="236" y="315" type="line"/>
    </contour>
    <contour>
      <point x="158" y="301" type="line"/>
      <point x="223" y="301" type="line"/>
      <point x="223" y="236" type="line"/>
      <point x="158" y="236" type="line"/>
    </contour>
    <contour>
      <point x="316" y="144" type="line"/>
      <point x="381" y="144" type="line"/>
      <point x="381" y="79" type="line"/>
      <point x="316" y="79" type="line"/>
    </contour>
    <contour>
      <point x="-1" y="459" type="line"/>
      <point x="64" y="459" type="line"/>
      <point x="64" y="394" type="line"/>
      <point x="-1" y="394" type="line"/>
    </contour>
    <contour>
      <point x="79" y="223" type="line"/>
      <point x="144" y="223" type="line"/>
      <point x="144" y="158" type="line"/>
      <point x="79" y="158" type="line"/>
    </contour>
    <contour>
      <point x="0" y="144" type="line"/>
      <point x="65" y="144" type="line"/>
      <point x="65" y="79" type="line"/>
      <point x="0" y="79" type="line"/>
    </contour>
  </outline>
</glyph>
<glyph name="sp_tonsi" format="2">
  <advance width="460"/>
  <unicode hex="F197E"/>
  <outline>
    <contour>
      <point x="315" y="538" type="line"/>
      <point x="380" y="538" type="line"/>
      <point x="380" y="473" type="line"/>
      <point x="315" y="473" type="line"/>
    </contour>
    <contour>
      <point x="315" y="380" type="line"/>
      <point x="380" y="380" type="line"/>
      <point x="380" y="315" type="line"/>
      <point x="315" y="315" type="line"/>
    </contour>
    <contour>
      <point x="315" y="301" type="line"/>
      <point x="380" y="301" type="line"/>
      <point x="380" y="236" type="line"/>
      <point x="315" y="236" type="line"/>
    </contour>
    <contour>
      <point x="315" y="223" type="line"/>
      <point x="380" y="223" type="line"/>
      <point x="380" y="158" type="line"/>
      <point x="315" y="158" type="line"/>
    </contour>
    <contour>
      <point x="236" y="459" type="line"/>
      <point x="301" y="459" type="line"/>
      <point x="301" y="394" type="line"/>
      <point x="236" y="394" type="line"/>
    </contour>
    <contour>
      <point x="158" y="459" type="line"/>
      <point x="223" y="459" type="line"/>
      <point x="223" y="394" type="line"/>
      <point x="158" y="394" type="line"/>
    </contour>
    <contour>
      <point x="236" y="144" type="line"/>
      <point x="301" y="144" type="line"/>
      <point x="301" y="79" type="line"/>
      <point x="236" y="79" type="line"/>
    </contour>
    <contour>
      <point x="158" y="144" type="line"/>
      <point x="223" y="144" type="line"/>
      <point x="223" y="79" type="line"/>
      <point x="158" y="79" type="line"/>
    </contour>
    <contour>
      <point x="158" y="65" type="line"/>
      <point x="223" y="65" type="line"/>
      <point x="223" y="0" type="line"/>
      <point x="158" y="0" type="line"/>
    </contour>
    <contour>
      <point x="0" y="538" type="line"/>
      <point x="65" y="538" type="line"/>
      <point x="65" y="473" type="line"/>
      <point x="0" y="473" type="line"/>
    </contour>
    <contour>
      <point x="79" y="459" type="line"/>
      <point x="144" y="459" type="line"/>
      <point x="144" y="394" type="line"/>
      <point x="79" y="394" type="line"/>
    </contour>
    <contour>
      <point x="0" y="380" type="line"/>
      <point x="65" y="380" type="line"/>
      <point x="65" y="315" type="line"/>
      <point x="0" y="315" type="line"/>
    </contour>
    <contour>
      <point x="0" y="301" type="line"/>
      <point x="65" y="301" type="line"/>
      <point x="65" y="236" type="line"/>
      <point x="0" y="236" type="line"/>
    </contour>
    <contour>
      <point x="0" y="223" type="line"/>
      <point x="65" y="223" type="line"/>
      <point x="65" y="158" type="line"/>
      <point x="0" y="158" type="line"/>
    </contour>
    <contour>
      <point x="79" y="144" type="line"/>
      <point x="144" y="144" type="line"/>
      <point x="144" y="79" type="line"/>
      <point x="79" y="79" type="line"/>
    </contour>
  </outline>
</glyph>
<glyph name="sp_misikeke" format="2">
  <advance width="460"/>
  <unicode hex="F1987"/>
  <outline>
    <contour>
      <point x="235" y="459" type="line"/>
      <point x="300" y="459" type="line"/>
      <point x="300" y="394" type="line"/>
      <point x="235" y="394" type="line"/>
    </contour>
    <contour>
      <point x="235" y="380" type="line"/>
      <point x="300" y="380" type="line"/>
      <point x="300" y="315" type="line"/>
      <point x="235" y="315" type="line"/>
    </contour>
    <contour>
      <point x="235" y="301" type="line"/>
      <point x="300" y="301" type="line"/>
      <point x="300" y="236" type="line"/>
      <point x="235" y="236" type="line"/>
    </contour>
    <contour>
      <point x="235" y="223" type="line"/>
      <point x="300" y="223" type="line"/>
      <point x="300" y="158" type="line"/>
      <point x="235" y="158" type="line"/>
    </contour>
    <contour>
      <point x="235" y="144" type="line"/>
      <point x="300" y="144" type="line"/>
      <point x="300" y="79" type="line"/>
      <point x="235" y="79" type="line"/>
    </contour>
    <contour>
      <point x="156" y="538" type="line"/>
      <point x="221" y="538" type="line"/>
      <point x="221" y="473" type="line"/>
      <point x="156" y="473" type="line"/>
    </contour>
    <contour>
      <point x="78" y="538" type="line"/>
      <point x="143" y="538" type="line"/>
      <point x="143" y="473" type="line"/>
      <point x="78" y="473" type="line"/>
    </contour>
    <contour>
      <point x="156" y="301" type="line"/>
      <point x="221" y="301" type="line"/>
      <point x="221" y="236" type="line"/>
      <point x="156" y="236" type="line"/>
    </contour>
    <contour>
      <point x="78" y="301" type="line"/>
      <point x="143" y="301" type="line"/>
      <point x="143" y="236" type="line"/>
      <point x="78" y="236" type="line"/>
    </contour>
    <contour>
      <point x="156" y="65" type="line"/>
      <point x="221" y="65" type="line"/>
      <point x="221" y="0" type="line"/>
      <point x="156" y="0" type="line"/>
    </contour>
    <contour>
      <point x="78" y="65" type="line"/>
      <point x="143" y="65" type="line"/>
      <point x="143" y="0" type="line"/>
      <point x="78" y="0" type="line"/>
    </contour>
    <contour>
      <point x="-1" y="459" type="line"/>
      <point x="64" y="459" type="line"/>
      <point x="64" y="394" type="line"/>
      <point x="-1" y="394" type="line"/>
    </contour>
    <contour>
      <point x="-1" y="380" type="line"/>
      <point x="64" y="380" type="line"/>
      <point x="64" y="315" type="line"/>
      <point x="-1" y="315" type="line"/>
    </contour>
    <contour>
      <point x="-1" y="301" type="line"/>
      <point x="64" y="301" type="line"/>
      <point x="64" y="236" type="line"/>
      <point x="-1" y="236" type="line"/>
    </contour>
    <contour>
      <point x="-1" y="223" type="line"/>
      <point x="64" y="223" type="line"/>
      <point x="64" y="158" type="line"/>
      <point x="-1" y="158" type="line"/>
    </contour>
    <contour>
      <point x="-1" y="144" type="line"/>
      <point x="64" y="144" type="line"/>
      <point x="64" y="79" type="line"/>
      <point x="-1" y="79" type="line"/>
    </contour>
  </outline>
</glyph>
